<svg width="417" height="761" viewBox="0 0 417 761" fill="none" xmlns="http://www.w3.org/2000/svg">
<g opacity="0.1">
<path d="M36.7856 256.36L1.79044 306.167L-2.23041e-05 0L35.6462 49.156C81.8723 112.798 82.3606 192.066 36.7856 256.36Z" fill="#357373"/>
<path d="M106.928 634.796L130.367 648.957C160.316 667.187 174.314 699.578 166.827 733.922L161.13 760.29L137.854 746.292C107.742 728.225 93.7439 695.671 101.231 661.327L106.928 634.796Z" fill="#357373"/>
<path d="M255.707 486.03L282.401 479.519C316.42 471.218 349.299 484.24 368.343 513.863L382.829 536.651L356.461 543.162C322.442 551.626 289.563 538.441 270.519 508.98L255.87 486.03H255.707Z" fill="#357373"/>
<path d="M255.539 275.729L269.7 252.29C287.93 222.341 320.321 208.343 354.665 215.83L381.033 221.527L367.035 244.803C348.968 274.915 316.414 288.913 282.07 281.426L255.539 275.729Z" fill="#357373"/>
<path d="M106.777 127.122L100.266 100.428C91.9652 66.4094 104.987 33.5302 134.61 14.4864L157.398 0L163.909 26.3684C172.373 60.387 159.188 93.2661 129.727 112.31L106.777 126.959V127.122Z" fill="#357373"/>
<path d="M38.0789 706.25L3.24658 755.406L1.45612 449.239L37.4279 499.046C83.4913 562.689 83.654 642.119 38.2417 706.25H38.0789Z" fill="#357373"/>
<path d="M110.68 380.391L160.487 344.419C224.292 298.519 303.397 298.193 367.528 343.605L416.847 378.6L367.528 414.409C303.886 460.473 224.618 460.961 160.487 415.549L110.68 380.391Z" fill="#357373"/>
<path d="M45.4001 424.176L113.926 441.755C201.495 464.217 270.183 532.417 293.459 619.823L311.363 687.046L243.326 669.63C155.594 647.168 86.906 579.294 63.4674 491.887L45.4001 424.176Z" fill="#357373"/>
<path d="M44.9158 337.416L62.4948 268.891C84.9568 181.322 153.157 112.633 240.563 89.3576L307.786 71.4531L290.37 139.49C267.908 227.222 200.034 295.91 112.627 319.349L44.9158 337.416Z" fill="#357373"/>
</g>
</svg>
